<svg height="496pt" viewBox="0 0 496.01962 496" width="496pt" xmlns="http://www.w3.org/2000/svg" xmlns:xlink="http://www.w3.org/1999/xlink"><linearGradient id="a" gradientUnits="userSpaceOnUse" x1="248.0096" x2="248.0096" y1="496.013976" y2=".006776"><stop offset="0" stop-color="#9f2fff"/><stop offset="1" stop-color="#0bb1d3"/></linearGradient><path d="m176 440.027344h16v16h-16zm319.511719-237.273438c-2.910157 10.878906-15.925781 14.167969-28.511719 17.34375-5.265625 1.328125-15.054688 3.808594-16.664062 5.984375-1.136719 2.425781 1.664062 12.335938 3.167968 17.671875 3.488282 12.367188 7.089844 25.167969-.761718 33.007813-7.847657 7.847656-20.644532 4.242187-33.007813.761719-5.335937-1.503907-15.277344-4.304688-17.734375-3.121094-2.121094 1.558594-4.601562 11.359375-5.929688 16.625-3.175781 12.582031-6.460937 25.597656-17.335937 28.503906-1.292969.34375-2.574219.511719-3.832031.511719-8.964844 0-16.964844-8.21875-24.734375-16.199219-.480469-.496094-.96875-.945312-1.449219-1.441406-8.03125 6.015625-17.949219 9.625-28.71875 9.625h-104v100.40625c10.214844 9.128906 16 21.886718 16 35.59375 0 14.503906-6.464844 28.078125-17.71875 37.246094-8.632812 7.023437-19.320312 10.738281-30.34375 10.738281-3.363281 0-6.753906-.347657-10.128906-1.050781-18.664063-3.871094-33.527344-19.160157-36.992188-38.023438-3.046875-16.65625 2.734375-33.34375 15.183594-44.503906v-100.40625h-104c-26.472656 0-48-21.53125-48-48 0-22.152344 15.105469-40.792969 35.535156-46.304688-2.3125-8.328125-3.535156-16.921875-3.535156-25.695312 0-52.9375 43.0625-96 96-96 19.0625 0 36.800781 5.65625 51.753906 15.269531 5.316406-6.230469 15.375-8.847656 25.246094-11.34375 5.265625-1.328125 15.054688-3.808594 16.664062-5.984375 1.136719-2.421875-1.664062-12.335938-3.167968-17.671875-3.488282-12.367187-7.089844-25.167969.761718-33.007813 7.839844-7.863281 20.636719-4.246093 33.007813-.757812 5.328125 1.496094 15.261719 4.300781 17.734375 3.117188 2.121094-1.558594 4.601562-11.359376 5.929688-16.621094 3.175781-12.585938 6.460937-25.601563 17.335937-28.503906 10.542969-2.832032 19.710937 6.589843 28.566406 15.6875 3.976563 4.078124 11.359375 11.671874 14.167969 11.792968 2.792969-.121094 10.183594-7.714844 14.152344-11.800781 8.855468-9.097656 18-18.480469 28.566406-15.6875 10.882812 2.910156 14.167969 15.925781 17.34375 28.511719 1.328125 5.261718 3.808594 15.054687 5.984375 16.664062 2.449219 1.125 12.335937-1.664062 17.671875-3.167968 12.371094-3.488282 25.160156-7.105469 33.007812.757812 7.847657 7.839844 4.25 20.640625.761719 33.007812-1.488281 5.335938-4.289062 15.257813-3.113281 17.738282 1.5625 2.117187 11.359375 4.597656 16.625 5.925781 12.585938 3.175781 25.601562 6.464844 28.503906 17.335937 2.824219 10.554688-6.59375 19.714844-15.6875 28.570313-4.082031 3.972656-11.671875 11.359375-11.792968 14.167969.121093 2.789062 7.710937 10.183594 11.800781 14.152344 9.097656 8.863281 18.503906 18.023437 15.6875 28.574218zm-279.511719 245.273438c0-10.007813-4.671875-19.28125-12.824219-25.441406l-3.175781-2.398438v-188.160156c0-8.824219-7.175781-16-16-16s-16 7.175781-16 16v16h16v16h-16v16h16v16h-16v16h16v16h-16v16h16v16h-16v16h16v16h-16v28.160156l-3.175781 2.398438c-9.921875 7.496093-14.503907 19.265624-12.273438 31.472656 2.296875 12.527344 12.144531 22.671875 24.496094 25.238281 9.875 2.050781 19.503906-.238281 27.128906-6.4375 7.511719-6.105469 11.824219-15.160156 11.824219-24.832031zm136-184c0-17.648438-14.351562-32-32-32s-32 14.351562-32 32h-16c0-23.585938 17.113281-43.210938 39.566406-47.210938-3.597656-31.902344-30.71875-56.789062-63.566406-56.789062-9.617188 0-19 2.261718-27.574219 6.367187 2.261719 8.175781 3.574219 16.742188 3.574219 25.632813h-16c0-44.113282-35.886719-80-80-80s-80 35.886718-80 80c0 8.292968 1.3125 16.398437 3.785156 24.191406 24.703125 1.941406 44.214844 22.613281 44.214844 47.808594h-16c0-17.648438-14.351562-32-32-32s-32 14.351562-32 32c0 17.648437 14.351562 32 32 32h104v-64c0-17.648438 14.351562-32 32-32s32 14.351562 32 32v64h104c17.648438 0 32-14.351563 32-32zm11.398438-20.363282c36.007812-11.71875 60.601562-45.15625 60.601562-83.636718 0-48.519532-39.480469-88-88-88-42.601562 0-78.96875 31-86.527344 72.070312 40.96875.753906 74.480469 32.390625 78.160156 72.59375 15.871094 2.550782 29.136719 12.878906 35.765626 26.972656zm116.761718-45.300781c-.472656-1.976562-7.648437-8.960937-11.503906-12.714843-8.175781-7.957032-16.640625-16.191407-16.640625-25.621094 0-9.433594 8.457031-17.664063 16.632813-25.625 3.855468-3.753906 11.03125-10.738282 11.34375-13.398438-1.398438-1.617187-11.496094-4.171875-16.921876-5.53125-11.316406-2.855468-22.007812-5.558594-26.574218-13.453125-4.632813-8-1.617188-18.714843 1.582031-30.066406 1.488281-5.296875 4.265625-15.152344 3.121094-17.632813-2-.636718-11.839844 2.113282-17.136719 3.609376-11.34375 3.191406-22.054688 6.214843-30.0625 1.585937-7.886719-4.570313-10.585938-15.257813-13.441406-26.570313-1.367188-5.421874-3.917969-15.527343-6.222656-17.078124-1.976563.472656-8.960938 7.648437-12.710938 11.503906-7.960938 8.175781-16.191406 16.632812-25.625 16.632812s-17.664062-8.457031-25.625-16.640625c-3.75-3.847656-10.734375-11.023437-13.398438-11.335937-1.617187 1.398437-4.167968 11.496094-5.535156 16.917968-2.855468 11.320313-5.554687 22.007813-13.449218 26.578126-8 4.636718-18.710938 1.613281-30.0625-1.585938-5.304688-1.496094-15.152344-4.289062-17.632813-3.121094-.664063 2 2.109375 11.859375 3.605469 17.152344 3.195312 11.34375 6.21875 22.066406 1.585937 30.066406-4.566406 7.886719-15.257812 10.582032-26.566406 13.4375-4.976563 1.257813-13.800781 3.503906-16.449219 5.640625 9.304688 8.464844 16.917969 18.703125 22.335938 30.214844 5.839844-2.664063 11.984375-4.535156 18.296875-5.726563 7.101562-50.703124 51.0625-89.574218 102.894531-89.574218 57.34375 0 104 46.65625 104 104 0 45.695312-29.359375 85.359375-72.257812 99.023437.167968 1.632813.257812 3.296875.257812 4.976563 0 9.925781-3.03125 19.167968-8.214844 26.832031.613282.621094 1.222656 1.199219 1.839844 1.832031 3.75 3.847656 10.734375 11.023438 13.398438 11.34375 1.617187-1.402344 4.167968-11.496094 5.535156-16.921875 2.855468-11.320312 5.554687-22.007812 13.449218-26.574219 8-4.632812 18.71875-1.609374 30.0625 1.582032 5.296876 1.496094 15.136719 4.242187 17.632813 3.121094.664063-2-2.109375-11.855469-3.605469-17.152344-3.195312-11.34375-6.21875-22.0625-1.585937-30.0625 4.566406-7.890625 15.257812-10.585938 26.566406-13.441406 5.425781-1.375 15.53125-3.921876 17.082031-6.222657zm0 0" fill="url(#a)"/></svg>